<svg xmlns="http://www.w3.org/2000/svg" xmlns:xlink="http://www.w3.org/1999/xlink" contentStyleType="text/css" data-diagram-type="SEQUENCE" height="712px" preserveAspectRatio="none" style="width:990px;height:712px;background:#FFFFFF;" version="1.1" viewBox="0 0 990 712" width="990px" zoomAndPan="magnify"><?plantuml 1.2026.5?><defs/><g><g class="title" data-source-line="1"><text fill="#000000" font-family="sans-serif" font-size="14" font-weight="700" lengthAdjust="spacing" textLength="202.5352" x="260.5994" y="28.5352">GET /api/v1/audit/{auditId}</text><text fill="#000000" font-family="sans-serif" font-size="14" font-weight="700" lengthAdjust="spacing" textLength="254.6865" x="467.7488" y="28.5352">&#8212; full decision trail for one answer</text></g><rect fill="#FFFFCC" height="16.6406" rx="2.5" ry="2.5" style="stroke:#FFDD88;stroke-width:3;" width="974.0347" x="3" y="45.4883"/><text fill="#000000" font-family="monospace" font-size="10" lengthAdjust="spacing" textLength="361.2305" x="10" y="56.1289">Please&#160;use&#160;CSS&#160;style&#160;instead&#160;of&#160;skinparam&#160;ParticipantPadding</text><g><title>AuditResource</title><rect fill="#DAE8FC" height="334.8594" style="stroke:#181818;stroke-width:1;" width="10" x="401.4199" y="187.2383"/></g><g><title>AuditService</title><rect fill="#F8CECC" height="84.3984" style="stroke:#181818;stroke-width:1;" width="10" x="619.625" y="215.3711"/></g><rect fill="none" height="200.3281" rx="5" ry="5" style="stroke:#8E24AA;stroke-width:2;" width="614.625" x="10" y="314.7695"/><g class="participant-lifeline" data-entity-uid="part1" data-qualified-name="Client" data-source-line="29" id="part1-lifeline"><g><title>Adviser .</title><rect fill="#000000" fill-opacity="0.00000" height="456.2344" width="8" x="82.8613" y="157.1055"/><line style="stroke:#3949AB;stroke-width:0.5;stroke-dasharray:5,5;" x1="86" x2="86" y1="157.1055" y2="613.3398"/></g></g><g class="participant-lifeline" data-entity-uid="part2" data-qualified-name="API" data-source-line="30" id="part2-lifeline"><g><title>AuditResource</title><rect fill="#000000" fill-opacity="0.00000" height="456.2344" width="8" x="402.4199" y="157.1055"/><line style="stroke:#3949AB;stroke-width:0.5;stroke-dasharray:5,5;" x1="405.9507" x2="405.9507" y1="157.1055" y2="613.3398"/></g></g><g class="participant-lifeline" data-entity-uid="part3" data-qualified-name="AUD" data-source-line="31" id="part3-lifeline"><g><title>AuditService</title><rect fill="#000000" fill-opacity="0.00000" height="456.2344" width="8" x="620.625" y="157.1055"/><line style="stroke:#3949AB;stroke-width:0.5;stroke-dasharray:5,5;" x1="624.583" x2="624.583" y1="157.1055" y2="613.3398"/></g></g><g class="participant-lifeline" data-entity-uid="part4" data-qualified-name="DB" data-source-line="32" id="part4-lifeline"><g><title>PostgreSQL</title><rect fill="#000000" fill-opacity="0.00000" height="456.2344" width="8" x="826.5938" y="157.1055"/><line style="stroke:#3949AB;stroke-width:0.5;stroke-dasharray:5,5;" x1="830.3716" x2="830.3716" y1="157.1055" y2="613.3398"/></g></g><g class="participant participant-head" data-entity-uid="part1" data-qualified-name="Client" data-source-line="29" id="part1-head"><text fill="#000000" font-family="sans-serif" font-size="14" lengthAdjust="spacing" textLength="62.2002" x="52.7612" y="137.6641">Adviser /</text><text fill="#000000" font-family="sans-serif" font-size="14" lengthAdjust="spacing" textLength="127.7227" x="20" y="154.1523">Compliance officer</text><ellipse cx="86.8613" cy="72.6289" fill="#ECEFF1" rx="8" ry="8" style="stroke:#181818;stroke-width:0.5;"/><path d="M86.8613,80.6289 L86.8613,107.6289 M73.8613,88.6289 L99.8613,88.6289 M86.8613,107.6289 L73.8613,122.6289 M86.8613,107.6289 L99.8613,122.6289" fill="none" style="stroke:#181818;stroke-width:0.5;"/></g><g class="participant participant-tail" data-entity-uid="part1" data-qualified-name="Client" data-source-line="29" id="part1-tail"><text fill="#000000" font-family="sans-serif" font-size="14" lengthAdjust="spacing" textLength="62.2002" x="52.7612" y="625.875">Adviser /</text><text fill="#000000" font-family="sans-serif" font-size="14" lengthAdjust="spacing" textLength="127.7227" x="20" y="642.3633">Compliance officer</text><ellipse cx="86.8613" cy="653.8164" fill="#ECEFF1" rx="8" ry="8" style="stroke:#181818;stroke-width:0.5;"/><path d="M86.8613,661.8164 L86.8613,688.8164 M73.8613,669.8164 L99.8613,669.8164 M86.8613,688.8164 L73.8613,703.8164 M86.8613,688.8164 L99.8613,703.8164" fill="none" style="stroke:#181818;stroke-width:0.5;"/></g><g class="participant participant-head" data-entity-uid="part2" data-qualified-name="API" data-source-line="30" id="part2-head"><rect fill="#DAE8FC" height="30.4883" rx="5" ry="5" style="stroke:#181818;stroke-width:2;" width="118.9385" x="346.9507" y="125.6172"/><text fill="#000000" font-family="sans-serif" font-size="14" font-weight="700" lengthAdjust="spacing" textLength="104.9385" x="353.9507" y="146.1523">AuditResource</text></g><g class="participant participant-tail" data-entity-uid="part2" data-qualified-name="API" data-source-line="30" id="part2-tail"><rect fill="#DAE8FC" height="30.4883" rx="5" ry="5" style="stroke:#181818;stroke-width:2;" width="118.9385" x="346.9507" y="612.3398"/><text fill="#000000" font-family="sans-serif" font-size="14" font-weight="700" lengthAdjust="spacing" textLength="104.9385" x="353.9507" y="632.875">AuditResource</text></g><g class="participant participant-head" data-entity-uid="part3" data-qualified-name="AUD" data-source-line="31" id="part3-head"><rect fill="#F8CECC" height="30.4883" rx="5" ry="5" style="stroke:#181818;stroke-width:2;" width="104.084" x="572.583" y="125.6172"/><text fill="#000000" font-family="sans-serif" font-size="14" font-weight="700" lengthAdjust="spacing" textLength="90.084" x="579.583" y="146.1523">AuditService</text></g><g class="participant participant-tail" data-entity-uid="part3" data-qualified-name="AUD" data-source-line="31" id="part3-tail"><rect fill="#F8CECC" height="30.4883" rx="5" ry="5" style="stroke:#181818;stroke-width:2;" width="104.084" x="572.583" y="612.3398"/><text fill="#000000" font-family="sans-serif" font-size="14" font-weight="700" lengthAdjust="spacing" textLength="90.084" x="579.583" y="632.875">AuditService</text></g><g class="participant participant-head" data-entity-uid="part4" data-qualified-name="DB" data-source-line="32" id="part4-head"><text fill="#000000" font-family="sans-serif" font-size="14" font-weight="700" lengthAdjust="spacing" textLength="82.5918" x="786.2979" y="137.6641">PostgreSQL</text><text fill="#000000" font-family="sans-serif" font-size="14" font-weight="700" lengthAdjust="spacing" textLength="98.4443" x="778.3716" y="154.1523">audit_records</text><path d="M812.5938,88.1289 C812.5938,78.1289 830.5938,78.1289 830.5938,78.1289 C830.5938,78.1289 848.5938,78.1289 848.5938,88.1289 L848.5938,114.1289 C848.5938,124.1289 830.5938,124.1289 830.5938,124.1289 C830.5938,124.1289 812.5938,124.1289 812.5938,114.1289 L812.5938,88.1289" fill="#D5E8D4" style="stroke:#181818;stroke-width:2;"/><path d="M812.5938,88.1289 C812.5938,98.1289 830.5938,98.1289 830.5938,98.1289 C830.5938,98.1289 848.5938,98.1289 848.5938,88.1289" fill="none" style="stroke:#181818;stroke-width:2;"/></g><g class="participant participant-tail" data-entity-uid="part4" data-qualified-name="DB" data-source-line="32" id="part4-tail"><text fill="#000000" font-family="sans-serif" font-size="14" font-weight="700" lengthAdjust="spacing" textLength="82.5918" x="786.2979" y="625.875">PostgreSQL</text><text fill="#000000" font-family="sans-serif" font-size="14" font-weight="700" lengthAdjust="spacing" textLength="98.4443" x="778.3716" y="642.3633">audit_records</text><path d="M812.5938,655.3164 C812.5938,645.3164 830.5938,645.3164 830.5938,645.3164 C830.5938,645.3164 848.5938,645.3164 848.5938,655.3164 L848.5938,681.3164 C848.5938,691.3164 830.5938,691.3164 830.5938,691.3164 C830.5938,691.3164 812.5938,691.3164 812.5938,681.3164 L812.5938,655.3164" fill="#D5E8D4" style="stroke:#181818;stroke-width:2;"/><path d="M812.5938,655.3164 C812.5938,665.3164 830.5938,665.3164 830.5938,665.3164 C830.5938,665.3164 848.5938,665.3164 848.5938,655.3164" fill="none" style="stroke:#181818;stroke-width:2;"/></g><g><title>AuditResource</title><rect fill="#DAE8FC" height="334.8594" style="stroke:#181818;stroke-width:1;" width="10" x="401.4199" y="187.2383"/></g><g><title>AuditService</title><rect fill="#F8CECC" height="84.3984" style="stroke:#181818;stroke-width:1;" width="10" x="619.625" y="215.3711"/></g><g class="message" data-entity-1="part1" data-entity-2="part2" data-source-line="36" id="msg1"><polygon fill="#283593" points="389.4199,183.2383,399.4199,187.2383,389.4199,191.2383,393.4199,187.2383" style="stroke:#283593;stroke-width:1;stroke-linejoin:miter;stroke-miterlimit:10;"/><line style="stroke:#283593;stroke-width:1.8;" x1="86.8613" x2="395.4199" y1="187.2383" y2="187.2383"/><text fill="#000000" font-family="sans-serif" font-size="12" font-weight="700" lengthAdjust="spacing" textLength="10.8809" x="93.8613" y="182.707">1.</text><text fill="#000000" font-family="sans-serif" font-size="12" lengthAdjust="spacing" textLength="161.1621" x="108.7422" y="182.707">GET /api/v1/audit/{auditId}</text></g><g class="message" data-entity-1="part2" data-entity-2="part3" data-source-line="38" id="msg2"><polygon fill="#283593" points="607.625,211.3711,617.625,215.3711,607.625,219.3711,611.625,215.3711" style="stroke:#283593;stroke-width:1;stroke-linejoin:miter;stroke-miterlimit:10;"/><line style="stroke:#283593;stroke-width:1.8;" x1="411.4199" x2="613.625" y1="215.3711" y2="215.3711"/><text fill="#000000" font-family="sans-serif" font-size="12" font-weight="700" lengthAdjust="spacing" textLength="10.8809" x="418.4199" y="210.8398">2.</text><text fill="#000000" font-family="sans-serif" font-size="12" lengthAdjust="spacing" textLength="71.2793" x="433.3008" y="210.8398">find(auditId)</text></g><g class="message" data-entity-1="part3" data-entity-2="part4" data-source-line="40" id="msg3"><polygon fill="#283593" points="818.5938,239.5039,828.5938,243.5039,818.5938,247.5039,822.5938,243.5039" style="stroke:#283593;stroke-width:1;stroke-linejoin:miter;stroke-miterlimit:10;"/><line style="stroke:#283593;stroke-width:1.8;" x1="629.625" x2="824.5938" y1="243.5039" y2="243.5039"/><text fill="#000000" font-family="sans-serif" font-size="12" font-weight="700" lengthAdjust="spacing" textLength="10.8809" x="636.625" y="238.9727">3.</text><text fill="#000000" font-family="sans-serif" font-size="12" lengthAdjust="spacing" textLength="162.0879" x="651.5059" y="238.9727">SELECT ... WHERE id = :uuid</text></g><g class="message" data-entity-1="part4" data-entity-2="part3" data-source-line="41" id="msg4"><polygon fill="#283593" points="640.625,267.6367,630.625,271.6367,640.625,275.6367,636.625,271.6367" style="stroke:#283593;stroke-width:1;stroke-linejoin:miter;stroke-miterlimit:10;"/><line style="stroke:#283593;stroke-width:1.8;stroke-dasharray:2,2;" x1="634.625" x2="829.5938" y1="271.6367" y2="271.6367"/><text fill="#000000" font-family="sans-serif" font-size="12" font-weight="700" lengthAdjust="spacing" textLength="10.8809" x="646.625" y="267.1055">4.</text><text fill="#000000" font-family="sans-serif" font-size="12" lengthAdjust="spacing" textLength="85.8516" x="661.5059" y="267.1055">record | empty</text></g><g class="message" data-entity-1="part3" data-entity-2="part2" data-source-line="42" id="msg5"><polygon fill="#283593" points="422.4199,295.7695,412.4199,299.7695,422.4199,303.7695,418.4199,299.7695" style="stroke:#283593;stroke-width:1;stroke-linejoin:miter;stroke-miterlimit:10;"/><line style="stroke:#283593;stroke-width:1.8;stroke-dasharray:2,2;" x1="416.4199" x2="623.625" y1="299.7695" y2="299.7695"/><text fill="#000000" font-family="sans-serif" font-size="12" font-weight="700" lengthAdjust="spacing" textLength="10.8809" x="428.4199" y="295.2383">5.</text><text fill="#000000" font-family="sans-serif" font-size="12" lengthAdjust="spacing" textLength="140.3145" x="443.3008" y="295.2383">Optional&lt;AuditRecord&gt;</text></g><path d="M15,314.7695 L72.1387,314.7695 L72.1387,322.0801 L62.1387,332.0801 L10,332.0801 L10,319.7695 A5,5 0 0 1 15,314.7695" fill="#F3E5F5" style="stroke:#8E24AA;stroke-width:1.5;"/><rect fill="none" height="200.3281" rx="5" ry="5" style="stroke:#8E24AA;stroke-width:2;" width="614.625" x="10" y="314.7695"/><text fill="#000000" font-family="sans-serif" font-size="13" font-weight="700" lengthAdjust="spacing" textLength="17.1387" x="25" y="328.3379">alt</text><text fill="#000000" font-family="sans-serif" font-size="11" font-weight="700" lengthAdjust="spacing" textLength="81.7158" x="87.1387" y="327.4043">[record found]</text><g class="message" data-entity-1="part2" data-entity-2="part2" data-source-line="46" id="msg6"><line style="stroke:#283593;stroke-width:1.8;" x1="411.4199" x2="453.4199" y1="380.4785" y2="380.4785"/><line style="stroke:#283593;stroke-width:1.8;" x1="453.4199" x2="453.4199" y1="380.4785" y2="393.4785"/><line style="stroke:#283593;stroke-width:1.8;" x1="412.4199" x2="453.4199" y1="393.4785" y2="393.4785"/><polygon fill="#283593" points="422.4199,389.4785,412.4199,393.4785,422.4199,397.4785,418.4199,393.4785" style="stroke:#283593;stroke-width:1;stroke-linejoin:miter;stroke-miterlimit:10;"/><text fill="#000000" font-family="sans-serif" font-size="12" font-weight="700" lengthAdjust="spacing" textLength="10.8809" x="418.4199" y="361.8145">6.</text><text fill="#000000" font-family="sans-serif" font-size="12" lengthAdjust="spacing" textLength="169.3242" x="433.3008" y="347.6816">expand stored JSON columns</text><text fill="#000000" font-family="sans-serif" font-size="12" lengthAdjust="spacing" textLength="154.6523" x="433.3008" y="361.8145">(fundIds, retrievedChunks,</text><text fill="#000000" font-family="sans-serif" font-size="12" lengthAdjust="spacing" textLength="153.6328" x="433.3008" y="375.9473">drafts, complianceResults)</text></g><g class="message" data-entity-1="part2" data-entity-2="part1" data-source-line="47" id="msg7"><polygon fill="#283593" points="97.8613,445.877,87.8613,449.877,97.8613,453.877,93.8613,449.877" style="stroke:#283593;stroke-width:1;stroke-linejoin:miter;stroke-miterlimit:10;"/><line style="stroke:#283593;stroke-width:1.8;stroke-dasharray:2,2;" x1="91.8613" x2="400.4199" y1="449.877" y2="449.877"/><text fill="#000000" font-family="sans-serif" font-size="12" font-weight="700" lengthAdjust="spacing" textLength="10.8809" x="103.8613" y="431.2129">7.</text><text fill="#000000" font-family="sans-serif" font-size="12" font-weight="700" lengthAdjust="spacing" textLength="23.748" x="118.7422" y="417.0801">200</text><text fill="#000000" font-family="sans-serif" font-size="12" lengthAdjust="spacing" textLength="228.7031" x="146.2871" y="417.0801">{question, audience, retrievedChunks[],</text><text fill="#000000" font-family="sans-serif" font-size="12" lengthAdjust="spacing" textLength="275.6777" x="118.7422" y="431.2129">researchFindings, drafts[], complianceResults[],</text><text fill="#000000" font-family="sans-serif" font-size="12" lengthAdjust="spacing" textLength="257.3262" x="118.7422" y="445.3457">finalAnswer, status, modelName, latencyMs}</text></g><line style="stroke:#8E24AA;stroke-width:1;stroke-dasharray:2,2;" x1="10" x2="624.625" y1="458.877" y2="458.877"/><text fill="#000000" font-family="sans-serif" font-size="11" font-weight="700" lengthAdjust="spacing" textLength="114.0713" x="15" y="469.5117">[not found #FFEBEE]</text><g class="message" data-entity-1="part2" data-entity-2="part1" data-source-line="49" id="msg8"><polygon fill="#283593" points="97.8613,503.0977,87.8613,507.0977,97.8613,511.0977,93.8613,507.0977" style="stroke:#283593;stroke-width:1;stroke-linejoin:miter;stroke-miterlimit:10;"/><line style="stroke:#283593;stroke-width:1.8;stroke-dasharray:2,2;" x1="91.8613" x2="400.4199" y1="507.0977" y2="507.0977"/><text fill="#000000" font-family="sans-serif" font-size="12" font-weight="700" lengthAdjust="spacing" textLength="10.8809" x="103.8613" y="495.5">8.</text><text fill="#000000" font-family="sans-serif" font-size="12" font-weight="700" lengthAdjust="spacing" textLength="23.748" x="118.7422" y="488.4336">404</text><text fill="#000000" font-family="sans-serif" font-size="12" lengthAdjust="spacing" textLength="82.8691" x="146.2871" y="488.4336">problem+json</text><text fill="#000000" font-family="sans-serif" font-size="12" lengthAdjust="spacing" textLength="178.9512" x="118.7422" y="502.5664">{title: "Not found", status: 404}</text></g><path d="M476,532.0977 L476,593.0977 A5,5 0 0 0 481,598.0977 L974,598.0977 A5,5 0 0 0 979,593.0977 L979,537.0977 L969,527.0977 L481,527.0977 A5,5 0 0 0 476,532.0977" fill="#FFEBEE" style="stroke:#181818;stroke-width:0.5;"/><path d="M969,527.0977 L969,534.5977 A2.5,2.5 0 0 0 971.5,537.0977 L979,537.0977 L969,527.0977" fill="#FFEBEE" style="stroke:#181818;stroke-width:0.5;"/><text fill="#000000" font-family="sans-serif" font-size="13" font-weight="700" lengthAdjust="spacing" textLength="161.4146" x="482" y="544.666">Append-only by design:</text><text fill="#000000" font-family="sans-serif" font-size="13" lengthAdjust="spacing" textLength="288.3613" x="647.5278" y="544.666">AuditService has no update/delete path and a</text><text fill="#000000" font-family="sans-serif" font-size="13" lengthAdjust="spacing" textLength="482.0347" x="482" y="559.9766">database trigger rejects UPDATE/DELETE on audit_records &#8212; the trail shown</text><text fill="#000000" font-family="sans-serif" font-size="13" lengthAdjust="spacing" textLength="441.8096" x="482" y="575.2871">here is exactly what the pipeline recorded, even for BLOCKED answers</text><text fill="#000000" font-family="sans-serif" font-size="13" lengthAdjust="spacing" textLength="438.2993" x="482" y="590.5977">(status=BLOCKED) and upstream failures (status=UPSTREAM_ERROR).</text><?plantuml-src ZLNRRY9747sVhoZX5rl1t8mZZBoM1XXsdR0s0QmyX6ZLJDT0hvlksUuU274ivIFoXVcIr3G37iURLPv0KrNddBgs4quYN2zktaSpgBDKr3VDEikuSFKd_tFBdw_hYnlu-y-_8Cca18wni48hS8O92Oase1K2KtQB9WZier0fCsmDTiMutWgrX8H9YoMBqPdYVMqK6cWsIWOf4fH2uPIm7IvtOBKKlEGmPiQ9MAHCkJ7ZF0U_A0DO_9AXYX6U0e3G6BtjQqaAJrgTYykhYyF7sKh4ZmgjXMQjS_WurCfDnUy8pHPz6f6K4KdfQSFH52WNL-shiFV6-WBNgbsIzJqbcBuAx4IjTXY-DfMYZWOMFowBwlYuuKLqEJn2Va16SLwdsr7R5bfoiWt4Hj3tDy5H9mg7txyu_2lmkLItzAMkldHVK_YDSCuSMp2B_pysOB4ZZPMGRuIbCQZFLL-lKobOtZsT9296Km5ceIy5aggJg1yDXysWhBGIvXCwGQip4wFt3iUtSC8PTfBuAwvJD1jny7mOm4dIYJ6EWwF-obXRjpGu_MaqLtx-FncCAI7hOmOz0h_43czJ0fdJAbilI7o5zgTHgmH1eVNynklemZUMAY-0sD2KlvAS_y-ZILiN4g7uQU5_Ll8l2S__ap_fwi8q6aNz6THgDVZvGpI9G71u1zqiemqYX_CZxZuZ-0DmdRhT7kCe-JvrjDnCNXUrpLrl0evbUafUkWDCaazSlaE5T8-2lr7LELZgCNBuONf_1x6MsLhPkJfDAE2MsoeXE2DmWxo_ojIZhSuLDonnP8cFiq3TpQIpPmS6eYYgtCtFLglHyEVfYVRUvigha5Silm5ly7_vbHWCMcGcNWsfk7G-Y6lFISQth3w2si1awCzRbJ9YBgEWjUOexzYQM2HLHSMxZ_OvGBfpeBJR5uNMTnZrekW_fBSRRIyzDNeXSVtTPwlLN3sv_29teN9tWAaSMBj08KH2vIxtOtmR1CH9MxEXMQJsLFsS7hc9AanJYZhNIkvWiQCJRiLITJrxUIzWHJEkD6GfBGJMAKCas9Iv5UJTP0Hst1Igx799V0O_O-miF8m7uIog3sW8Pn6z2F1gU_ppuLPOF1fsfRUAq5Pe48IbSQ5qIDjsnPntIqNg7u9Yo91NWVge_6lJ6zttVum6nOjZ2UPqNvztXUNCgyrIwmpISKg8CQEs7zqUnjFP90e_Veeca_l9MIslQDur_0S0?></g></svg>